<svg xmlns="http://www.w3.org/2000/svg" viewBox="0 0 120 120" width="120" height="120" fill="none">

  <clipPath id="icon-clip">
    <circle cx="60" cy="60" r="56"/>
  </clipPath>
  <g clip-path="url(#icon-clip)">
    <rect x="0" y="0" width="60" height="120" fill="#1a3b5c"/>
    <rect x="60" y="0" width="60" height="120" fill="#7ba4c4"/>
  </g>
  <circle cx="60" cy="60" r="56" stroke="#1a3b5c" stroke-width="1.5" fill="none"/>
  <g stroke="#ffffff" stroke-width="4" stroke-linecap="round">
    <line x1="16" y1="36" x2="104" y2="36"/>
    <line x1="16" y1="60" x2="104" y2="60"/>
    <line x1="16" y1="84" x2="104" y2="84"/>
    <line x1="36" y1="12" x2="36" y2="108"/>
    <line x1="60" y1="12" x2="60" y2="108"/>
    <line x1="84" y1="12" x2="84" y2="108"/>
  </g>
  <g fill="#ffffff">
    <rect x="33" y="33" width="6" height="6" rx="1"/>
    <rect x="57" y="33" width="6" height="6" rx="1"/>
    <rect x="81" y="33" width="6" height="6" rx="1"/>
    <rect x="33" y="57" width="6" height="6" rx="1"/>
    <rect x="57" y="57" width="6" height="6" rx="1"/>
    <rect x="81" y="57" width="6" height="6" rx="1"/>
    <rect x="33" y="81" width="6" height="6" rx="1"/>
    <rect x="57" y="81" width="6" height="6" rx="1"/>
    <rect x="81" y="81" width="6" height="6" rx="1"/>
  </g>
  <g font-family="'Segoe UI', system-ui, monospace" font-weight="700" fill="#a2b53a">
    <text x="21" y="30" font-size="14">&lt;</text>
    <text x="44" y="30" font-size="14">-</text>
    <text x="66" y="28" font-size="14">/.</text>
    <text x="19" y="54" font-size="14">&lt;</text>
    <text x="44" y="54" font-size="14">.</text>
    <text x="68" y="54" font-size="14">&gt;</text>
    <text x="44" y="78" font-size="14">/</text>
    <text x="68" y="78" font-size="14">.</text>
    <text x="21" y="100" font-size="12">||</text>
    <text x="43" y="100" font-size="14">.</text>
    <text x="66" y="100" font-size="14">/</text>
    <text x="88" y="100" font-size="14">.</text>
  </g>

</svg>