<svg xmlns="http://www.w3.org/2000/svg" viewBox="0 0 290 60" width="580" height="120" fill="none">
  <g transform="translate(2, 5) scale(0.42)">
    <clipPath id="horiz-clip"><circle cx="60" cy="60" r="56"/></clipPath>
    <g clip-path="url(#horiz-clip)">
      <rect x="0" y="0" width="60" height="120" fill="#1a3b5c"/>
      <rect x="60" y="0" width="60" height="120" fill="#7ba4c4"/>
    </g>
    <circle cx="60" cy="60" r="56" stroke="#1a3b5c" stroke-width="2" fill="none"/>
    <g stroke="#ffffff" stroke-width="5" stroke-linecap="round">
      <line x1="16" y1="36" x2="104" y2="36"/>
      <line x1="16" y1="60" x2="104" y2="60"/>
      <line x1="16" y1="84" x2="104" y2="84"/>
      <line x1="36" y1="12" x2="36" y2="108"/>
      <line x1="60" y1="12" x2="60" y2="108"/>
      <line x1="84" y1="12" x2="84" y2="108"/>
    </g>
    <g fill="#ffffff">
      <rect x="32" y="32" width="8" height="8" rx="1.5"/>
      <rect x="56" y="32" width="8" height="8" rx="1.5"/>
      <rect x="80" y="32" width="8" height="8" rx="1.5"/>
      <rect x="32" y="56" width="8" height="8" rx="1.5"/>
      <rect x="56" y="56" width="8" height="8" rx="1.5"/>
      <rect x="80" y="56" width="8" height="8" rx="1.5"/>
      <rect x="32" y="80" width="8" height="8" rx="1.5"/>
      <rect x="56" y="80" width="8" height="8" rx="1.5"/>
      <rect x="80" y="80" width="8" height="8" rx="1.5"/>
    </g>
    <g font-family="'Segoe UI', system-ui, monospace" font-weight="700" fill="#a2b53a">
      <text x="21" y="30" font-size="16">&lt;</text>
      <text x="44" y="30" font-size="16">-</text>
      <text x="66" y="28" font-size="16">/.</text>
      <text x="19" y="54" font-size="16">&lt;</text>
      <text x="44" y="54" font-size="16">.</text>
      <text x="68" y="54" font-size="16">&gt;</text>
      <text x="44" y="78" font-size="16">/</text>
      <text x="68" y="78" font-size="16">.</text>
      <text x="21" y="100" font-size="14">||</text>
      <text x="43" y="100" font-size="16">.</text>
      <text x="66" y="100" font-size="16">/</text>
      <text x="88" y="100" font-size="16">.</text>
    </g>
  </g>
  <text x="62" y="32"
    font-family="'Segoe UI', 'SF Pro Display', system-ui, sans-serif"
    font-size="32" font-weight="700" fill="#1a3b5c">Trellis</text>
  <text x="63" y="48"
    font-family="'Segoe UI', 'SF Pro Display', system-ui, sans-serif"
    font-size="11" font-weight="400" letter-spacing="1.5" fill="#5a7a96" opacity="0.9">docs-as-code</text>
</svg>